<?xml version="1.0" encoding="UTF-8" standalone="no"?>
<!-- Created with Inkscape (http://www.inkscape.org/) -->
<svg id="svg4229" xmlns:rdf="http://www.w3.org/1999/02/22-rdf-syntax-ns#" xmlns="http://www.w3.org/2000/svg" height="66.41mm" width="66.409mm" version="1.1" xmlns:cc="http://creativecommons.org/ns#" xmlns:dc="http://purl.org/dc/elements/1.1/" viewBox="0 0 235.30874 235.31125">
 <metadata id="metadata4234">
  <rdf:RDF>
   <cc:Work rdf:about="">
    <dc:format>image/svg+xml</dc:format>
    <dc:type rdf:resource="http://purl.org/dc/dcmitype/StillImage"/>
    <dc:title/>
   </cc:Work>
  </rdf:RDF>
 </metadata>
 <g id="layer1" transform="translate(-330.92 -368.99)">
  <path id="path62" d="m386.88 398.76h22.48c6.4-9.9812 12.026-19.996 16.512-29.765h-94.958v116.61c18.929-14.831 38.664-34.524 55.965-55.875v-30.971" fill="#3055ab"/>
  <g fill="#2c60b3">
   <path id="path64" d="m432.71 472.65c7.3325-9.1475 14.184-18.585 20.335-28.069h-20.335v28.069"/>
   <path id="path66" d="m386.88 429.73c-17.301 21.351-37.036 41.044-55.965 55.875v1.0438c0 22.572 6.3688 43.651 17.389 61.564 12.035-6.4375 25.264-16.004 38.576-27.589v-90.894"/>
   <path id="path68" d="m476.32 398.76c3.025-8.72 5.0125-17.111 5.6525-24.925-10.591-3.1325-21.798-4.84-33.405-4.84h-22.696c-4.4862 9.7688-10.112 19.784-16.512 29.765h66.961"/>
  </g>
  <g fill="#3576c4">
   <path id="path70" d="m478.53 444.58h-25.489c-6.1512 9.4838-13.002 18.921-20.335 28.069v10.118h45.824c10.18 0 15.275-5.0912 15.275-15.275v-7.6375c0-10.181-5.095-15.274-15.275-15.274"/>
   <path id="path72" d="m432.71 564.01c11.892-10.461 23.821-22.516 34.999-35.415h-34.999v35.415"/>
   <path id="path74" d="m386.88 520.62c-13.312 11.585-26.541 21.151-38.576 27.589 9.6525 15.684 22.908 28.884 38.576 38.552v-66.141"/>
   <path id="path76" d="m478.53 398.76c21.96 0 37.949 5.9762 48.069 17.819 0.41-7.2875-0.3475-14.062-2.5-20.12-12.188-10.218-26.478-17.998-42.124-22.624-0.64 7.8138-2.6275 16.205-5.6525 24.925h2.2075"/>
  </g>
  <path id="path78" d="m432.71 564.01v2.7712h45.824c10.18 0 15.275-5.0888 15.275-15.275v-7.6375c0-10.181-5.095-15.274-15.275-15.274h-10.825c-11.178 12.899-23.106 24.954-34.999 35.415" fill="#4297d9"/>
  <path id="path80" d="m526.6 416.58c8.65 10.12 13.03 24.51 13.03 43.279 0 27.495-8.655 42.769-25.965 45.825 14.349 2.5312 22.735 13.491 25.186 32.819 12.119-17.94 21.825-36.188 27.345-53.07-0.365-35.729-16.642-67.635-42.096-88.972 2.1525 6.0575 2.91 12.832 2.5 20.12" fill="#4297d9"/>
  <path id="path82" d="m566.2 485.43c-5.52 16.882-15.226 35.13-27.345 53.07 0.505 3.9862 0.77875 8.3038 0.77875 13.004 0 25.742-8.155 43.326-24.422 52.801h51.019v-117.66c0-0.40875-0.025-0.81125-0.03-1.2188" fill="#5bc3ee"/>
 </g>
</svg>
